<mxfile host="Electron" modified="2023-04-05T08:39:48.701Z" agent="Mozilla/5.0 (Windows NT 10.0; Win64; x64) AppleWebKit/537.36 (KHTML, like Gecko) draw.io/21.1.2 Chrome/106.0.5249.199 Electron/21.4.3 Safari/537.36" etag="Ufcsg3LXBigNF1xw4Ucz" version="21.1.2" type="device">
  <diagram name="페이지-1" id="jwlogUS8V5inGkHQzCs6">
    <mxGraphModel dx="1480" dy="877" grid="1" gridSize="10" guides="1" tooltips="1" connect="1" arrows="1" fold="1" page="1" pageScale="1" pageWidth="1169" pageHeight="827" background="#ffffff" math="0" shadow="0">
      <root>
        <mxCell id="0" />
        <mxCell id="1" parent="0" />
        <mxCell id="VTdqCkY_t20LeBBKGg7Y-31" value="" style="verticalLabelPosition=bottom;verticalAlign=top;html=1;shape=mxgraph.basic.patternFillRect;fillStyle=diag;step=5;fillStrokeWidth=0.2;fillStrokeColor=#dddddd;" vertex="1" parent="1">
          <mxGeometry x="410" y="240" width="630" height="420" as="geometry" />
        </mxCell>
        <mxCell id="VTdqCkY_t20LeBBKGg7Y-1" value="View" style="rounded=0;whiteSpace=wrap;html=1;fillColor=#f5f5f5;fontColor=#333333;strokeColor=#666666;" vertex="1" parent="1">
          <mxGeometry x="80" y="530" width="120" height="60" as="geometry" />
        </mxCell>
        <mxCell id="VTdqCkY_t20LeBBKGg7Y-2" value="Controller" style="rounded=1;whiteSpace=wrap;html=1;fillColor=#dae8fc;strokeColor=#6c8ebf;" vertex="1" parent="1">
          <mxGeometry x="200" y="530" width="120" height="60" as="geometry" />
        </mxCell>
        <mxCell id="VTdqCkY_t20LeBBKGg7Y-6" value="GET" style="edgeStyle=orthogonalEdgeStyle;rounded=0;orthogonalLoop=1;jettySize=auto;html=1;" edge="1" parent="1" source="VTdqCkY_t20LeBBKGg7Y-3" target="VTdqCkY_t20LeBBKGg7Y-5">
          <mxGeometry relative="1" as="geometry" />
        </mxCell>
        <mxCell id="VTdqCkY_t20LeBBKGg7Y-3" value="index.html" style="rounded=0;whiteSpace=wrap;html=1;fillColor=#f5f5f5;fontColor=#333333;strokeColor=#666666;" vertex="1" parent="1">
          <mxGeometry x="232.32" y="150" width="120" height="60" as="geometry" />
        </mxCell>
        <mxCell id="VTdqCkY_t20LeBBKGg7Y-10" value="GET" style="edgeStyle=orthogonalEdgeStyle;rounded=0;orthogonalLoop=1;jettySize=auto;html=1;entryX=0.5;entryY=0;entryDx=0;entryDy=0;startArrow=classic;startFill=1;" edge="1" parent="1" source="VTdqCkY_t20LeBBKGg7Y-5" target="VTdqCkY_t20LeBBKGg7Y-9">
          <mxGeometry relative="1" as="geometry" />
        </mxCell>
        <mxCell id="VTdqCkY_t20LeBBKGg7Y-81" value="" style="edgeStyle=orthogonalEdgeStyle;rounded=0;orthogonalLoop=1;jettySize=auto;html=1;" edge="1" parent="1" source="VTdqCkY_t20LeBBKGg7Y-5" target="VTdqCkY_t20LeBBKGg7Y-33">
          <mxGeometry relative="1" as="geometry" />
        </mxCell>
        <mxCell id="VTdqCkY_t20LeBBKGg7Y-5" value="/login" style="rounded=0;whiteSpace=wrap;html=1;fillColor=#f5f5f5;fontColor=#333333;strokeColor=#666666;" vertex="1" parent="1">
          <mxGeometry x="232.32" y="260" width="120" height="60" as="geometry" />
        </mxCell>
        <mxCell id="VTdqCkY_t20LeBBKGg7Y-12" value="POST" style="edgeStyle=orthogonalEdgeStyle;rounded=0;orthogonalLoop=1;jettySize=auto;html=1;" edge="1" parent="1" source="VTdqCkY_t20LeBBKGg7Y-9" target="VTdqCkY_t20LeBBKGg7Y-11">
          <mxGeometry relative="1" as="geometry" />
        </mxCell>
        <mxCell id="VTdqCkY_t20LeBBKGg7Y-9" value="/login/register" style="rounded=0;whiteSpace=wrap;html=1;fillColor=#f5f5f5;fontColor=#333333;strokeColor=#666666;" vertex="1" parent="1">
          <mxGeometry x="232.32" y="380" width="120" height="60" as="geometry" />
        </mxCell>
        <mxCell id="VTdqCkY_t20LeBBKGg7Y-16" style="edgeStyle=orthogonalEdgeStyle;rounded=0;orthogonalLoop=1;jettySize=auto;html=1;entryX=0;entryY=0.5;entryDx=0;entryDy=0;exitX=0.5;exitY=0;exitDx=0;exitDy=0;" edge="1" parent="1" source="VTdqCkY_t20LeBBKGg7Y-11" target="VTdqCkY_t20LeBBKGg7Y-5">
          <mxGeometry relative="1" as="geometry" />
        </mxCell>
        <mxCell id="VTdqCkY_t20LeBBKGg7Y-17" value="Redirect" style="edgeLabel;html=1;align=center;verticalAlign=middle;resizable=0;points=[];" vertex="1" connectable="0" parent="VTdqCkY_t20LeBBKGg7Y-16">
          <mxGeometry x="-0.0707" y="-1" relative="1" as="geometry">
            <mxPoint as="offset" />
          </mxGeometry>
        </mxCell>
        <mxCell id="VTdqCkY_t20LeBBKGg7Y-11" value="register()" style="rounded=1;whiteSpace=wrap;html=1;fillColor=#dae8fc;strokeColor=#6c8ebf;" vertex="1" parent="1">
          <mxGeometry x="50.00000000000001" y="380" width="120" height="60" as="geometry" />
        </mxCell>
        <mxCell id="VTdqCkY_t20LeBBKGg7Y-38" value="GET" style="edgeStyle=orthogonalEdgeStyle;rounded=0;orthogonalLoop=1;jettySize=auto;html=1;entryX=0.5;entryY=0;entryDx=0;entryDy=0;" edge="1" parent="1" source="VTdqCkY_t20LeBBKGg7Y-33" target="VTdqCkY_t20LeBBKGg7Y-37">
          <mxGeometry relative="1" as="geometry" />
        </mxCell>
        <mxCell id="VTdqCkY_t20LeBBKGg7Y-33" value="/main" style="rounded=0;whiteSpace=wrap;html=1;fillColor=#f5f5f5;fontColor=#333333;strokeColor=#666666;" vertex="1" parent="1">
          <mxGeometry x="450" y="260" width="120" height="60" as="geometry" />
        </mxCell>
        <mxCell id="VTdqCkY_t20LeBBKGg7Y-40" value="GET" style="edgeStyle=orthogonalEdgeStyle;rounded=0;orthogonalLoop=1;jettySize=auto;html=1;entryX=0.5;entryY=0;entryDx=0;entryDy=0;startArrow=classic;startFill=1;" edge="1" parent="1" source="VTdqCkY_t20LeBBKGg7Y-37" target="VTdqCkY_t20LeBBKGg7Y-39">
          <mxGeometry relative="1" as="geometry">
            <mxPoint x="510" y="480" as="targetPoint" />
          </mxGeometry>
        </mxCell>
        <mxCell id="VTdqCkY_t20LeBBKGg7Y-71" style="edgeStyle=orthogonalEdgeStyle;rounded=0;orthogonalLoop=1;jettySize=auto;html=1;entryX=0.5;entryY=0;entryDx=0;entryDy=0;" edge="1" parent="1" source="VTdqCkY_t20LeBBKGg7Y-37" target="VTdqCkY_t20LeBBKGg7Y-42">
          <mxGeometry relative="1" as="geometry" />
        </mxCell>
        <mxCell id="VTdqCkY_t20LeBBKGg7Y-72" style="edgeStyle=orthogonalEdgeStyle;rounded=0;orthogonalLoop=1;jettySize=auto;html=1;entryX=0.5;entryY=0;entryDx=0;entryDy=0;" edge="1" parent="1" source="VTdqCkY_t20LeBBKGg7Y-37" target="VTdqCkY_t20LeBBKGg7Y-48">
          <mxGeometry relative="1" as="geometry" />
        </mxCell>
        <mxCell id="VTdqCkY_t20LeBBKGg7Y-73" style="edgeStyle=orthogonalEdgeStyle;rounded=0;orthogonalLoop=1;jettySize=auto;html=1;entryX=0.5;entryY=0;entryDx=0;entryDy=0;" edge="1" parent="1" source="VTdqCkY_t20LeBBKGg7Y-37" target="VTdqCkY_t20LeBBKGg7Y-55">
          <mxGeometry relative="1" as="geometry" />
        </mxCell>
        <mxCell id="VTdqCkY_t20LeBBKGg7Y-74" style="edgeStyle=orthogonalEdgeStyle;rounded=0;orthogonalLoop=1;jettySize=auto;html=1;entryX=0.5;entryY=1;entryDx=0;entryDy=0;" edge="1" parent="1" source="VTdqCkY_t20LeBBKGg7Y-37" target="VTdqCkY_t20LeBBKGg7Y-49">
          <mxGeometry relative="1" as="geometry" />
        </mxCell>
        <mxCell id="VTdqCkY_t20LeBBKGg7Y-82" value="POST" style="edgeLabel;html=1;align=center;verticalAlign=middle;resizable=0;points=[];" vertex="1" connectable="0" parent="VTdqCkY_t20LeBBKGg7Y-74">
          <mxGeometry x="-0.5963" relative="1" as="geometry">
            <mxPoint y="1" as="offset" />
          </mxGeometry>
        </mxCell>
        <mxCell id="VTdqCkY_t20LeBBKGg7Y-37" value="/main/{containerId}" style="rounded=0;whiteSpace=wrap;html=1;fillColor=#f5f5f5;fontColor=#333333;strokeColor=#666666;" vertex="1" parent="1">
          <mxGeometry x="450" y="383.5" width="120" height="60" as="geometry" />
        </mxCell>
        <mxCell id="VTdqCkY_t20LeBBKGg7Y-75" style="edgeStyle=orthogonalEdgeStyle;rounded=0;orthogonalLoop=1;jettySize=auto;html=1;entryX=0.5;entryY=1;entryDx=0;entryDy=0;" edge="1" parent="1" source="VTdqCkY_t20LeBBKGg7Y-39" target="VTdqCkY_t20LeBBKGg7Y-42">
          <mxGeometry relative="1" as="geometry" />
        </mxCell>
        <mxCell id="VTdqCkY_t20LeBBKGg7Y-76" style="edgeStyle=orthogonalEdgeStyle;rounded=0;orthogonalLoop=1;jettySize=auto;html=1;entryX=0.5;entryY=1;entryDx=0;entryDy=0;" edge="1" parent="1" source="VTdqCkY_t20LeBBKGg7Y-39" target="VTdqCkY_t20LeBBKGg7Y-48">
          <mxGeometry relative="1" as="geometry" />
        </mxCell>
        <mxCell id="VTdqCkY_t20LeBBKGg7Y-77" style="edgeStyle=orthogonalEdgeStyle;rounded=0;orthogonalLoop=1;jettySize=auto;html=1;entryX=0.5;entryY=1;entryDx=0;entryDy=0;" edge="1" parent="1" source="VTdqCkY_t20LeBBKGg7Y-39" target="VTdqCkY_t20LeBBKGg7Y-55">
          <mxGeometry relative="1" as="geometry" />
        </mxCell>
        <mxCell id="VTdqCkY_t20LeBBKGg7Y-78" style="edgeStyle=orthogonalEdgeStyle;rounded=0;orthogonalLoop=1;jettySize=auto;html=1;entryX=0.5;entryY=0;entryDx=0;entryDy=0;" edge="1" parent="1" source="VTdqCkY_t20LeBBKGg7Y-39" target="VTdqCkY_t20LeBBKGg7Y-56">
          <mxGeometry relative="1" as="geometry" />
        </mxCell>
        <mxCell id="VTdqCkY_t20LeBBKGg7Y-83" value="POST" style="edgeLabel;html=1;align=center;verticalAlign=middle;resizable=0;points=[];" vertex="1" connectable="0" parent="VTdqCkY_t20LeBBKGg7Y-78">
          <mxGeometry x="-0.6667" y="-1" relative="1" as="geometry">
            <mxPoint as="offset" />
          </mxGeometry>
        </mxCell>
        <mxCell id="VTdqCkY_t20LeBBKGg7Y-39" value="/post/{containerId}/{postId}" style="rounded=0;whiteSpace=wrap;html=1;fillColor=#f5f5f5;fontColor=#333333;strokeColor=#666666;" vertex="1" parent="1">
          <mxGeometry x="430" y="510" width="160" height="60" as="geometry" />
        </mxCell>
        <mxCell id="VTdqCkY_t20LeBBKGg7Y-42" value="createContainer()" style="rounded=1;whiteSpace=wrap;html=1;fillColor=#dae8fc;strokeColor=#6c8ebf;" vertex="1" parent="1">
          <mxGeometry x="640" y="443.5" width="120" height="60" as="geometry" />
        </mxCell>
        <mxCell id="VTdqCkY_t20LeBBKGg7Y-48" value="createPost()" style="rounded=1;whiteSpace=wrap;html=1;fillColor=#dae8fc;strokeColor=#6c8ebf;" vertex="1" parent="1">
          <mxGeometry x="770" y="443.5" width="120" height="60" as="geometry" />
        </mxCell>
        <mxCell id="VTdqCkY_t20LeBBKGg7Y-49" value="deleteContainer()" style="rounded=1;whiteSpace=wrap;html=1;fillColor=#dae8fc;strokeColor=#6c8ebf;" vertex="1" parent="1">
          <mxGeometry x="640" y="320" width="120" height="60" as="geometry" />
        </mxCell>
        <mxCell id="VTdqCkY_t20LeBBKGg7Y-55" value="deletePost()" style="rounded=1;whiteSpace=wrap;html=1;fillColor=#dae8fc;strokeColor=#6c8ebf;" vertex="1" parent="1">
          <mxGeometry x="900" y="443.5" width="120" height="60" as="geometry" />
        </mxCell>
        <mxCell id="VTdqCkY_t20LeBBKGg7Y-56" value="UpdatePost()" style="rounded=1;whiteSpace=wrap;html=1;fillColor=#dae8fc;strokeColor=#6c8ebf;" vertex="1" parent="1">
          <mxGeometry x="640" y="580" width="120" height="60" as="geometry" />
        </mxCell>
        <mxCell id="VTdqCkY_t20LeBBKGg7Y-84" value="Spring Security Filter" style="rounded=0;whiteSpace=wrap;html=1;fillColor=#d5e8d4;strokeColor=#82b366;" vertex="1" parent="1">
          <mxGeometry x="410" y="190" width="160" height="50" as="geometry" />
        </mxCell>
      </root>
    </mxGraphModel>
  </diagram>
</mxfile>
